<?xml version="1.0" encoding="UTF-8" standalone="no" ?>
<!DOCTYPE svg PUBLIC "-//W3C//DTD SVG 1.1//EN" "http://www.w3.org/Graphics/SVG/1.1/DTD/svg11.dtd">
<svg xmlns="http://www.w3.org/2000/svg" xmlns:xlink="http://www.w3.org/1999/xlink" version="1.1" width="500" height="500" viewBox="0 0 500 500" xml:space="preserve">
<desc>Created with Fabric.js 4.6.0</desc>
<defs>
</defs>
<g transform="matrix(1 0 0 1 249.86 250)" id="BERqp1HYTc0qNJuXMZsLG"  >
<g style="" vector-effect="non-scaling-stroke"   >
		<g transform="matrix(2.61 0 0 0.86 0 -119.86)" id="R-6p5d1coOIBrMMrW-tIO"  >
<path style="stroke: rgb(51,226,93); stroke-width: 0; stroke-dasharray: none; stroke-linecap: butt; stroke-dashoffset: 0; stroke-linejoin: miter; stroke-miterlimit: 4; fill: rgb(244,39,157); fill-rule: nonzero; opacity: 1;" vector-effect="non-scaling-stroke"  transform=" translate(0, 0)" d="M -34.53039 -17.59005 C -34.53039 -26.94594 -32.017759999999996 -34.53038 -28.918279999999996 -34.53038 L 28.918280000000003 -34.53038 L 28.918280000000003 -34.53038 C 32.01776 -34.53038 34.530390000000004 -26.94594 34.530390000000004 -17.59005 L 34.530390000000004 17.590059999999998 L 34.530390000000004 17.590059999999998 C 34.530390000000004 26.945949999999996 32.01776 34.53039 28.918280000000003 34.53039 L -28.918279999999996 34.53039 L -28.918279999999996 34.53039 C -32.017759999999996 34.53039 -34.53039 26.945949999999996 -34.53039 17.590059999999998 z" stroke-linecap="round" />
</g>
		<g transform="matrix(0.87 0 0 4.34 -60.14 0)" id="HRcC3O6TAhhOIeQzOZMFI"  >
<path style="stroke: rgb(51,226,93); stroke-width: 0; stroke-dasharray: none; stroke-linecap: butt; stroke-dashoffset: 0; stroke-linejoin: miter; stroke-miterlimit: 4; fill: rgb(43,115,130); fill-rule: nonzero; opacity: 1;" vector-effect="non-scaling-stroke"  transform=" translate(0, 0)" d="M -34.53039 -31.15792 C -34.53039 -33.02048 -26.980859999999996 -34.53039 -17.668049999999997 -34.53039 L 34.53038000000001 -34.53039 L 34.53038000000001 31.157920000000004 L 34.53038000000001 31.157920000000004 C 34.53038000000001 33.020480000000006 26.980850000000007 34.530390000000004 17.66804000000001 34.530390000000004 L -17.66804999999999 34.530390000000004 L -17.66804999999999 34.530390000000004 C -26.980859999999993 34.530390000000004 -34.53038999999999 33.020480000000006 -34.53038999999999 31.157920000000004 z" stroke-linecap="round" />
</g>
		<g transform="matrix(2.32 0 0 0.86 -10 -0.3)" id="B2l0vx047qPngkJUivIOt"  >
<path style="stroke: rgb(51,226,93); stroke-width: 0; stroke-dasharray: none; stroke-linecap: butt; stroke-dashoffset: 0; stroke-linejoin: miter; stroke-miterlimit: 4; fill: rgb(49,168,247); fill-rule: nonzero; opacity: 1;" vector-effect="non-scaling-stroke"  transform=" translate(0, 0)" d="M -34.53039 -34.53039 L 28.217980000000004 -34.53039 L 28.217980000000004 -34.53039 C 31.704230000000003 -34.53039 34.530390000000004 -26.903609999999997 34.530390000000004 -17.495499999999996 L 34.530390000000004 17.495500000000003 L 34.530390000000004 17.495500000000003 C 34.530390000000004 26.903610000000004 31.704230000000003 34.530390000000004 28.217980000000004 34.530390000000004 L -34.53039 34.530390000000004 z" stroke-linecap="round" />
</g>
</g>
</g>
</svg>