<?xml version="1.0" standalone="yes"?>
<svg xmlns="http://www.w3.org/2000/svg" width="332" height="332">
<path style="fill:#010101; stroke:none;" d="M0 0L0 332L332 332L332 0L0 0z"/>
<path style="fill:#fa018b; stroke:none;" d="M86 72C124.143 60.9656 159.516 58.7407 199 61.9143C211.777 62.9413 235.45 64.7631 245 74C248.193 66.3914 248.046 47.1396 239.906 42.6883C231.342 38.0053 215.551 41 206 41L126 41C116.486 41 99.3716 37.7332 91.1883 43.2284C83.0576 48.6883 86 63.5982 86 72z"/>
<path style="fill:#fc02c3; stroke:none;" d="M140.985 60.4352C125.259 62.3497 101.906 62.1578 88.3179 71.3943C81.1712 76.2522 86.3485 96.1486 93.0154 99.4275C103.306 104.489 121.696 101 133 101C155.347 101 177.729 100 200 100C211.561 100 225.73 102.227 236.996 99.6057C247.869 97.0765 250.622 74.2087 239.985 70.3596C210.288 59.6138 172.282 56.625 140.985 60.4352z"/>
<path style="fill:#fa018b; stroke:none;" d="M245.333 90.6667L245.667 91.3333L245.333 90.6667z"/>
<path style="fill:#016edb; stroke:none;" d="M86 92L87 93L86 92z"/>
<path style="fill:#01dd6f; stroke:none;" d="M86 93L86 247C86 260.104 80.4027 290.898 93.044 299.397C97.2701 302.238 104.151 301 109 301C121.393 301 140.591 305.51 144.649 290C149.599 271.083 146 247.48 146 228L146 102C128.59 102 98.2031 106.354 86 93z"/>
<path style="fill:#016edb; stroke:none;" d="M87 94L88 95L87 94z"/>
<path style="fill:#fa018b; stroke:none;" d="M244 94L245 95L244 94M243 95L244 96L243 95z"/>
<path style="fill:#016edb; stroke:none;" d="M88 96L89 97L88 96M89 97L90 98L89 97M90 98L91 99L90 98z"/>
<path style="fill:#fa018b; stroke:none;" d="M240 98L241 99L240 98z"/>
<path style="fill:#016edb; stroke:none;" d="M92 99L93 100L92 99z"/>
<path style="fill:#fa018b; stroke:none;" d="M238.667 99.3333L239.333 99.6667L238.667 99.3333z"/>
<path style="fill:#016edb; stroke:none;" d="M94.6667 100.333L95.3333 100.667L94.6667 100.333z"/>
<path style="fill:#fa018b; stroke:none;" d="M188 100L188 101L237 101C224.348 95.691 201.788 100 188 100z"/>
<path style="fill:#016edb; stroke:none;" d="M132 101L132 102L146 102L132 101M146 149L146 209L186 209C191.459 209 198.954 210.278 203.956 207.682C208.296 205.43 209.576 200.532 209.91 196C210.674 185.635 214.462 157.365 204.892 150.742C200.468 147.681 193.102 149 188 149L146 149M145 285L145 288L146 288L145 285M86.3333 287.667L86.6667 288.333L86.3333 287.667M87 291L88 292L87 291M144 291L145 292L144 291M143 293L144 294L143 293M88 294L89 295L88 294M142 295L143 296L142 295M90 297L91 298L90 297M141 297L142 298L141 297M91 298L92 299L91 298M140 298L141 299L140 298M92 299L93 300L92 299M139 299L140 300L139 299M93 300L94 301L93 300M137.667 300.333L138.333 300.667L137.667 300.333M95 301L95 302L136 302C125.25 297.489 106.696 301 95 301z"/>
</svg>
